<?xml version="1.0" encoding="UTF-8"?>
<svg id="svg" version="1.1" viewBox="0 0 4.2333 4.2333" xmlns="http://www.w3.org/2000/svg">
 <g stroke-miterlimit="3.5" stroke-width=".26458">
  <rect width="4.2333" height="4.2333" fill="#aeaeae"/>
  <path d="m4.0474 2.1528-0.36696-0.40534s-1.4025 0.22345-2.9104 0c-0.07865-0.53383-0.10703-0.69257 0-1.3229 2.32-0.28026 3.175 0 3.175 0s0.17608 0.44362 0 1.3229c-0.024687 0.21455 0.10238 0.40534 0.10238 0.40534z" fill="#fff"/>
  <path d="m0.3 4.1528 0.36696-0.40534s1.4025 0.22345 2.9104 0c0.07865-0.53383 0.10703-0.69257 0-1.3229-2.32-0.28026-3.175 0-3.175 0s-0.17608 0.44362 0 1.3229c0.024687 0.21455-0.10238 0.40534-0.10238 0.40534z" fill="#fff"/>
 </g>
</svg>
