<?xml version="1.0" encoding="UTF-8"?>
<svg  id="svg" width="24" height="24"  version="1.1" viewBox="0 0 4.2333 4.2333" xmlns="http://www.w3.org/2000/svg">
 <g stroke-width=".26458">
  <path  transform="translate(8.1256e-5 9.1553e-5)" d="M 0.2,2.24 C 2.1,0 4,2.1 4,2.1 3.24,3.2 1.24,3.27 0.2,2.24 Z" fill="none" stroke="#000" part="stroke"  stroke-width=".26458" style="paint-order:markers stroke fill" />
  <path d="m2.3944 2.6437a0.60854 0.60854 0 0 1-0.83128-0.22274 0.60854 0.60854 0 0 1 0.22274-0.83128l0.30427 0.52701z" stroke="#000" part="stroke fill" stroke-width=".26458" style="paint-order:markers stroke fill" />
  <g fill="none">
   <circle cx="2.1168" cy="2.1168" r=".66146" stroke="#000" part="stroke fill" stroke-width=".26458" style="paint-order:markers stroke fill" />
   <rect transform="matrix(.8527 -.52241 .51138 .85936 0 0)" x=".87519" y="1.8884" width=".053094" height="2.1382" ry="0" stroke="#fff" part="stroke-background fill-background" stroke-width=".26459" style="paint-order:markers stroke fill" />
   <rect transform="matrix(.85608 -.51685 .51692 .85603 0 0)" x=".63927" y="1.8323" width=".05292" height="2.1167" ry="0" stroke="#000" part="stroke fill" stroke-width=".26458" style="paint-order:markers stroke fill" />
  </g>
 </g>
</svg>
