<?xml version="1.0" encoding="UTF-8" standalone="no"?>
<!-- Created with Inkscape (http://www.inkscape.org/) -->

<svg
   width="16"
   height="16"
   viewBox="0 0 4.2333331 4.2333332"
   version="1.1"
   id="svg1"
   xmlns="http://www.w3.org/2000/svg"
   xmlns:svg="http://www.w3.org/2000/svg">
  <defs
     id="defs1" />
  <g
     id="layer1">
    <path
       style="fill:none;fill-opacity:1;stroke:#000000;stroke-width:0.132292;stroke-dasharray:none;stroke-opacity:1;paint-order:markers stroke fill"
       d="M 0.2,2.24 C 2.1,0 4,2.1 4,2.1 3.24,3.2 1.24,3.27 0.2,2.24 Z"
       id="path12"
       transform="translate(8.1255513e-5,9.155316e-5)" />
    <circle
       style="fill:none;fill-opacity:1;stroke:#000000;stroke-width:0.132292;stroke-dasharray:none;stroke-opacity:1;paint-order:markers stroke fill"
       id="path13"
       r="0.66145831"
       cy="2.1167626"
       cx="2.1167545" />
    <path
       style="fill:#000000;fill-opacity:1;stroke:#000000;stroke-width:0.132292;stroke-dasharray:none;stroke-opacity:1;paint-order:markers stroke fill"
       id="path13-2"
       d="M 2.394394,2.6436791 A 0.60854167,0.60854167 0 0 1 1.5631106,2.4209374 0.60854167,0.60854167 0 0 1 1.7858523,1.589654 l 0.3042709,0.5270126 z" />
    <rect
       style="fill:none;fill-opacity:1;stroke:#ffffff;stroke-width:0.132297;stroke-dasharray:none;stroke-opacity:1;paint-order:markers stroke fill"
       id="rect1-6"
       width="0.053094026"
       height="2.1382031"
       x="0.74624991"
       y="1.8337517"
       ry="0"
       transform="matrix(0.85269748,-0.52240502,0.51137884,0.85935539,0,0)" />
    <rect
       style="fill:none;fill-opacity:1;stroke:#000000;stroke-width:0.132292;stroke-dasharray:none;stroke-opacity:1;paint-order:markers stroke fill"
       id="rect1"
       width="0.052920371"
       height="2.1167169"
       x="0.6392709"
       y="1.8323228"
       ry="0"
       transform="matrix(0.85607815,-0.51684639,0.51692153,0.85603278,0,0)" />
  </g>
</svg>
