<?xml version="1.0" encoding="UTF-8"?>
<svg id="svg"   version="1.1" viewBox="0 0 4.2333 4.2333" xmlns="http://www.w3.org/2000/svg">
 <g stroke-miterlimit="3.5" stroke-width=".26458">
  <rect width="4.2333" height="4.2333" fill="#aeaeae" stroke-miterlimit="3.5" stroke-width=".26458" />
  <g fill="#fff">
   <path d="m-0.26458 3.3073a1.0583 1.0583 0 0 1 1.0583-1.0583 1.0583 1.0583 0 0 1 1.0583 1.0583h-1.0583z" />
   <circle cx=".79375" cy="1.7727" r=".52917" />
   <path d="m1.0583 2.8575a1.0583 1.0583 0 0 1 1.0583-1.0583 1.0583 1.0583 0 0 1 1.0583 1.0583h-1.0583z" />
   <circle cx="2.1167" cy="1.3229" r=".52917" />
   <path d="m2.2225 3.0163a1.0583 1.0583 0 0 1 1.0583-1.0583 1.0583 1.0583 0 0 1 1.0583 1.0583h-1.0583z" />
   <circle cx="3.2808" cy="1.4817" r=".52917" />
   <rect y="2.6458" width="4.2333" height="1.5875" />
  </g>
 </g>
</svg>
